<?xml version="1.0" encoding="utf-8"?>
<!-- Generator: Adobe Illustrator 23.0.4, SVG Export Plug-In . SVG Version: 6.00 Build 0)  -->
<svg version="1.1" id="Capa_1" xmlns="http://www.w3.org/2000/svg" xmlns:xlink="http://www.w3.org/1999/xlink" x="0px" y="0px"
	 viewBox="0 0 69.78 69.78" style="enable-background:new 0 0 69.78 69.78;" xml:space="preserve">
<style type="text/css">
	.st0{fill:#FFFFFF;}
</style>
<g>
	<g>
		<path class="st0" d="M34.89,0c9.64,0,18.35,3.9,24.67,10.22s10.22,15.03,10.22,24.67s-3.9,18.35-10.22,24.67
			S44.53,69.78,34.89,69.78s-18.35-3.9-24.67-10.22C3.9,53.25,0,44.53,0,34.89s3.9-18.35,10.22-24.67S25.25,0,34.89,0L34.89,0z
			 M57.65,12.15c-5.83-5.82-13.87-9.43-22.76-9.43s-16.92,3.61-22.74,9.43S2.72,26,2.72,34.89s3.61,16.92,9.43,22.76
			c5.82,5.82,13.85,9.41,22.74,9.41s16.92-3.59,22.76-9.41c5.82-5.83,9.41-13.87,9.41-22.76C67.06,26.01,63.47,17.97,57.65,12.15
			L57.65,12.15z"/>
	</g>
	<g>
		<g>
			<g>
				<path class="st0" d="M52.93,43.49c0,5.21-4.22,9.43-9.43,9.43H26.75c-5.21,0-9.43-4.22-9.43-9.43V26.75
					c0-5.21,4.22-9.43,9.43-9.43h16.74c5.21,0,9.43,4.22,9.43,9.43v16.74H52.93z"/>
			</g>
		</g>
		<g>
			<path d="M27.99,19.95c-3.73,0-6.77,3.03-6.77,6.77c0,3.73,3.03,6.77,6.77,6.77c3.73,0,6.77-3.03,6.77-6.77
				S31.72,19.95,27.99,19.95z M32.02,30.79c-1.08,1.08-2.51,1.67-4.04,1.67c-3.15,0-5.71-2.56-5.71-5.71s2.56-5.71,5.71-5.71
				c1.53,0,2.96,0.59,4.04,1.67s1.67,2.51,1.67,4.04S33.1,29.71,32.02,30.79z"/>
			<g>
				<path d="M28.23,27.34v-0.96h0.83v-0.9h-0.81v-0.77l-1.07,0.15v0.64h-0.62v0.9h0.6l0.01,1.14c0,0-0.01,0.86,0.68,1.09
					c0.72,0.24,1.55-0.18,1.55-0.18l-0.49-0.99C28.29,27.84,28.23,27.34,28.23,27.34z"/>
				<path d="M31.17,28.68c0.01-0.01,0.01-0.02,0.02-0.03c0.02-0.04,0.05-0.08,0.07-0.12v-0.01c0.3-0.54,0.47-1.16,0.47-1.81
					c0-2.07-1.67-3.74-3.74-3.74s-3.74,1.67-3.74,3.74s1.67,3.74,3.74,3.74l0,0c0.03,0,0.07,0,0.1,0c0.51-0.01,0.99-0.13,1.43-0.33
					c0.04-0.02,0.08-0.03,0.12-0.05c0.53,0.2,1.04,0.24,1.39,0.24c0.2,0,0.33-0.02,0.34-0.02c0.12-0.02,0.21-0.1,0.24-0.22
					c0.03-0.11-0.02-0.24-0.11-0.3c-0.11-0.08-0.31-0.56-0.43-0.95l0.01-0.01C31.11,28.77,31.14,28.73,31.17,28.68z M30.85,28.08
					c-0.03,0.06-0.06,0.11-0.09,0.17c-0.01,0.01-0.01,0.02-0.02,0.03c-0.02,0.04-0.05,0.08-0.07,0.12c-0.04,0.07-0.09,0.13-0.13,0.2
					c-0.05,0.07-0.07,0.16-0.05,0.24c0,0.01,0.13,0.48,0.32,0.89c-0.3-0.02-0.68-0.08-1.06-0.24c-0.08-0.03-0.16-0.03-0.24,0.01
					c-0.4,0.2-0.9,0.34-1.33,0.37c-0.06,0-0.12,0.01-0.18,0.01c-1.75,0-3.17-1.42-3.17-3.17s1.42-3.17,3.17-3.17
					s3.17,1.42,3.17,3.17C31.16,27.2,31.04,27.67,30.85,28.08z"/>
			</g>
		</g>
		<g>
			<line x1="22.61" y1="46.3" x2="47.81" y2="20.17"/>
			<rect x="17.06" y="33.09" transform="matrix(0.6943 -0.7197 0.7197 0.6943 -13.1504 35.5019)" width="36.31" height="0.29"/>
		</g>
		<g>
			<g>
				<path d="M43.57,40.28c0.73-0.41,1.12-1.23,0.98-2.05c-0.17-1.27-1.68-1.75-2.87-1.85v-1.91H40.5v1.89h-0.79v-1.89h-1.18v1.89
					h-2.37v1.22h0.88c0.39,0,0.59,0.12,0.59,0.44v5.23c0,0.44-0.22,0.57-0.45,0.57h-0.9v1.24h2.29v1.93h1.18v-1.93h0.79v1.93h1.15
					v-1.93h0.25c2.42,0,3.23-1.18,3.23-2.8C45.16,41.32,44.5,40.51,43.57,40.28z M39.71,37.66h0.84c0.59,0,1.75,0.1,1.75,1.06
					c0.04,0.63-0.41,1.17-1.03,1.25h-1.55v-2.31H39.71z M41.02,43.71L41.02,43.71l-1.3-0.01v-2.52h1.51c0.35,0,1.68,0.12,1.68,1.06
					S42.28,43.71,41.02,43.71z"/>
			</g>
		</g>
	</g>
</g>
</svg>
